<svg width="71" height="91" viewBox="0 0 71 91" fill="none" xmlns="http://www.w3.org/2000/svg">
<path d="M59.4869 79.5474L69.4971 103.71H1.49707L11.5072 79.5474H20.1366L28.4209 66.4307H42.5733L50.8575 79.5474H59.4869Z" fill="url(#paint0_linear_1644_1858)"/>
<path d="M30.4911 3.55039L32.2171 29.4391L5.31024 20.9375L28.2796 37.9772L24.4322 56.6447L37.1545 46.1379L51.8922 62.5761L43.2628 41.5203L58.6615 39.3053L48.0871 34.6178L54.3092 0.445312L40.5014 28.0584L30.4911 3.55039Z" fill="url(#paint1_linear_1644_1858)"/>
<path d="M59.4869 79.5474L69.4971 103.71H1.49707L11.5072 79.5474H20.1366L28.4209 66.4307H42.5733L50.8575 79.5474H59.4869Z" stroke="#00FC43" stroke-width="2"/>
<path d="M30.4911 3.55039L32.2171 29.4391L5.31024 20.9375L28.2796 37.9772L24.4322 56.6447L37.1545 46.1379L51.8922 62.5761L43.2628 41.5203L58.6615 39.3053L48.0871 34.6178L54.3092 0.445312L40.5014 28.0584L30.4911 3.55039Z" stroke="#00FC43" stroke-width="2"/>
<defs>
<linearGradient id="paint0_linear_1644_1858" x1="35.4971" y1="0.445313" x2="35.4971" y2="103.71" gradientUnits="userSpaceOnUse">
<stop stop-color="#686868"/>
<stop offset="1"/>
</linearGradient>
<linearGradient id="paint1_linear_1644_1858" x1="35.4971" y1="0.445313" x2="35.4971" y2="103.71" gradientUnits="userSpaceOnUse">
<stop stop-color="#686868"/>
<stop offset="1"/>
</linearGradient>
</defs>
</svg>
